#!OML:ASF I:\Actors\actors\Patient Classification 2\Patient 1\Session 1\actor1.ASF
:FULLY-SPECIFIED
:DEGREES
76
root -0.732855 18.7132 5.81647 2.96654 -2.09174 -1.01831
lowerback 0.338344 -0.0611932 -1.76151
upperback -2.44679 -0.10449 0.402111
thorax -2.69663 -0.00814032 1.40276
lowerneck -12.4929 -0.842027 -1.0315
upperneck 24.2778 -1.86468 3.51329
head 9.79066 -0.568805 1.17468
rclavicle -4.45402e-015 1.17283e-014
rhumerus -45.4142 -2.78357 -87.6681
rradius 38.5773
rwrist 21.7766
rhand -6.01198 -28.7353
rfingers 7.12502
rthumb 19.8208 -57.7447
lclavicle -4.45402e-015 1.17283e-014
lhumerus -42.01 4.46153 89.4204
lradius 36.8775
lwrist -7.49482
lhand -3.72582 -23.2364
lfingers 7.12502
lthumb 22.0172 5.53038
rfemur 5.2785 2.63782 15.0394
rtibia 6.36111e-015
rfoot -17.3054 -10.1401
rtoes -1.62267
lfemur -5.1721 -7.7291 -13.1684
ltibia 20.006
lfoot -22.8913 15.1689
ltoes -55.4567
77
root -0.732638 18.7137 5.81502 2.98735 -2.10733 -0.991188
lowerback 0.332871 -0.0470275 -1.78308
upperback -2.46053 -0.0863669 0.38495
thorax -2.70841 0.00139692 1.39675
lowerneck -12.4393 -0.842355 -1.01076
upperneck 24.2464 -1.86775 3.50922
head 9.76909 -0.569613 1.16918
rclavicle -5.15598e-015 -6.16232e-015
rhumerus -45.4377 -2.78811 -87.702
rradius 38.5854
rwrist 21.804
rhand -5.89359 -28.7476
rfingers 7.12502
rthumb 19.9346 -57.7451
lclavicle -5.15598e-015 -6.16232e-015
lhumerus -42.0181 4.38418 89.4482
lradius 36.9029
lwrist -7.46045
lhand -3.74572 -23.253
lfingers 7.12502
lthumb 21.9981 5.51604
rfemur 5.24691 2.65008 15.008
rtibia 1.74931e-014
rfoot -17.3195 -10.1374
rtoes -1.57717
lfemur -5.20358 -7.73934 -13.1978
ltibia 20.0247
lfoot -22.9316 15.1766
ltoes -55.4185
78
root -0.732178 18.7135 5.81349 3.00526 -2.11246 -0.987833
lowerback 0.311471 -0.0358115 -1.76687
upperback -2.46014 -0.071031 0.370938
thorax -2.69651 0.00840132 1.37281
lowerneck -12.4183 -0.832097 -0.980781
upperneck 24.2342 -1.85159 3.47793
head 9.75972 -0.563167 1.15504
rclavicle -1.18028e-015 8.15017e-015
rhumerus -45.4559 -2.83122 -87.7268
rradius 38.6082
rwrist 21.8322
rhand -5.93014 -28.709
rfingers 7.12502
rthumb 19.8995 -57.7102
lclavicle -1.18028e-015 8.15017e-015
lhumerus -41.9943 4.35166 89.4608
lradius 36.888
lwrist -7.45268
lhand -3.79288 -23.2862
lfingers 7.12502
lthumb 21.9528 5.48811
rfemur 5.21811 2.65349 15.0035
rtibia 0
rfoot -17.3148 -10.1456
rtoes -1.67952
lfemur -5.23548 -7.73649 -13.2008
ltibia 20.0325
lfoot -22.9071 15.2113
ltoes -55.434
79
root -0.731891 18.7137 5.81235 2.98441 -2.11564 -1.00246
lowerback 0.2982 -0.0346849 -1.7329
upperback -2.43007 -0.0687402 0.359105
thorax -2.6581 0.00806276 1.34149
lowerneck -12.4148 -0.831851 -0.947794
upperneck 24.2408 -1.85024 3.4433
head 9.76074 -0.563409 1.13756
rclavicle 1.02064e-014 -8.74653e-015
rhumerus -45.4275 -2.87006 -87.7624
rradius 38.5968
rwrist 21.793
rhand -6.11392 -28.5624
rfingers 7.12502
rthumb 19.7228 -57.5819
lclavicle 1.02064e-014 -8.74653e-015
lhumerus -41.9347 4.37602 89.4395
lradius 36.8581
lwrist -7.41977
lhand -3.80401 -23.2848
lfingers 7.12502
lthumb 21.9422 5.49086
rfemur 5.23477 2.65929 15.0209
rtibia -4.77083e-015
rfoot -17.3061 -10.1597
rtoes -1.87386
lfemur -5.21932 -7.71871 -13.1864
ltibia 20.0313
lfoot -22.8682 15.2153
ltoes -55.4636
80
root -0.731366 18.7137 5.81096 2.96025 -2.11105 -0.995737
lowerback 0.289473 -0.0339588 -1.71812
upperback -2.39739 -0.0675185 0.341496
thorax -2.61953 0.00754425 1.31502
lowerneck -12.4077 -0.847167 -0.947999
upperneck 24.2422 -1.87157 3.44205
head 9.76045 -0.573552 1.13461
rclavicle 1.25483e-014 -1.21259e-014
rhumerus -45.3575 -2.8947 -87.7938
rradius 38.5492
rwrist 21.7339
rhand -6.25669 -28.5126
rfingers 7.12502
rthumb 19.5856 -57.5461
lclavicle 1.25483e-014 -1.21259e-014
lhumerus -41.8618 4.41134 89.4158
lradius 36.8312
lwrist -7.41795
lhand -3.79472 -23.2256
lfingers 7.12502
lthumb 21.9511 5.54893
rfemur 5.25333 2.65649 15.0136
rtibia 1.27222e-014
rfoot -17.2919 -10.1889
rtoes -2.05732
lfemur -5.20427 -7.7179 -13.1982
ltibia 20.0333
lfoot -22.8442 15.2222
ltoes -55.4794
81
root -0.730559 18.7136 5.8091 2.9652 -2.09647 -0.990267
lowerback 0.270111 -0.0354172 -1.72519
upperback -2.3801 -0.0689811 0.347104
thorax -2.59076 0.00664353 1.32473
lowerneck -12.4552 -0.844219 -0.966838
upperneck 24.2871 -1.85925 3.4218
head 9.78514 -0.570888 1.13252
rclavicle 3.07495e-015 -9.14409e-015
rhumerus -45.3286 -2.77259 -87.9184
rradius 38.5879
rwrist 21.3021
rhand -6.69987 -28.8708
rfingers 7.12502
rthumb 19.1595 -57.9471
lclavicle 3.07495e-015 -9.14409e-015
lhumerus -41.8212 4.40123 89.4636
lradius 36.865
lwrist -7.38115
lhand -3.81132 -23.0963
lfingers 7.12502
lthumb 21.9351 5.68012
rfemur 5.243 2.64127 15.0035
rtibia 1.59028e-015
rfoot -17.2819 -10.2066
rtoes -2.03367
lfemur -5.22971 -7.72525 -13.2044
ltibia 20.0439
lfoot -22.8122 15.2152
ltoes -55.4444
82
root -0.730364 18.7143 5.80734 2.97157 -2.09679 -0.989154
lowerback 0.263499 -0.0371172 -1.74443
upperback -2.37251 -0.0710869 0.361089
thorax -2.57914 0.00600709 1.34992
lowerneck -12.4996 -0.829662 -0.952678
upperneck 24.3392 -1.83097 3.37241
head 9.81085 -0.561083 1.11662
rclavicle 1.72073e-015 -1.31198e-014
rhumerus -45.3397 -2.67479 -88.0341
rradius 38.654
rwrist 20.8809
rhand -7.12962 -29.2311
rfingers 7.12502
rthumb 18.7462 -58.3478
lclavicle 1.72073e-015 -1.31198e-014
lhumerus -41.8051 4.37657 89.5258
lradius 36.9125
lwrist -7.31263
lhand -3.77734 -22.9868
lfingers 7.12502
lthumb 21.9678 5.78579
rfemur 5.23252 2.64099 15.0001
rtibia 0
rfoot -17.2755 -10.207
rtoes -1.83837
lfemur -5.25121 -7.66887 -13.2034
ltibia 20.0522
lfoot -22.7387 15.1682
ltoes -55.4441
83
root -0.730773 18.7154 5.80607 2.97432 -2.10386 -0.982077
lowerback 0.254242 -0.0357169 -1.75696
upperback -2.36699 -0.0693003 0.357354
thorax -2.56833 0.00698081 1.35305
lowerneck -12.4895 -0.821254 -0.924186
upperneck 24.3436 -1.81909 3.34609
head 9.80965 -0.55599 1.10406
rclavicle -6.23687e-015 8.34896e-015
rhumerus -45.3048 -2.86597 -87.9147
rradius 38.5755
rwrist 21.2598
rhand -6.91348 -29.0791
rfingers 7.12502
rthumb 18.954 -58.1756
lclavicle -6.23687e-015 8.34896e-015
lhumerus -41.8014 4.34067 89.5478
lradius 36.9326
lwrist -7.31205
lhand -3.72823 -22.9717
lfingers 7.12502
lthumb 22.0149 5.79539
rfemur 5.22454 2.64742 14.994
rtibia 3.18055e-015
rfoot -17.2676 -10.1969
rtoes -1.73467
lfemur -5.26618 -7.62557 -13.2104
ltibia 20.057
lfoot -22.6743 15.1872
ltoes -55.5142
84
root -0.730791 18.7159 5.80488 2.98348 -2.10846 -0.970351
lowerback 0.24032 -0.0316865 -1.76257
upperback -2.37374 -0.0639533 0.350722
thorax -2.56764 0.00973517 1.34923
lowerneck -12.4826 -0.82298 -0.934684
upperneck 24.3762 -1.81809 3.33814
head 9.81993 -0.557152 1.10346
rclavicle 8.13775e-015 -1.23246e-014
rhumerus -45.3039 -3.08237 -87.7692
rradius 38.5108
rwrist 21.6934
rhand -6.71951 -28.9482
rfingers 7.12502
rthumb 19.1406 -58.0264
lclavicle 8.13775e-015 -1.23246e-014
lhumerus -41.8308 4.28702 89.5775
lradius 36.9615
lwrist -7.35879
lhand -3.76039 -23.0849
lfingers 7.12502
lthumb 21.984 5.68581
rfemur 5.20936 2.65057 14.9799
rtibia -1.74931e-014
rfoot -17.265 -10.1832
rtoes -1.74719
lfemur -5.29245 -7.63199 -13.2228
ltibia 20.067
lfoot -22.6634 15.2428
ltoes -55.5182
85
root -0.730461 18.7154 5.80405 2.9765 -2.12892 -0.950125
lowerback 0.229095 -0.0303669 -1.78573
upperback -2.37287 -0.0624302 0.347501
thorax -2.5605 0.0108768 1.35885
lowerneck -12.476 -0.818594 -0.942909
upperneck 24.4139 -1.81094 3.33677
head 9.83198 -0.5545 1.10555
rclavicle -4.66523e-015 4.77083e-015
rhumerus -45.3302 -3.13874 -87.7414
rradius 38.5403
rwrist 21.7603
rhand -6.75684 -29.1873
rfingers 7.12502
rthumb 19.1047 -58.269
lclavicle -4.66523e-015 4.77083e-015
lhumerus -41.8694 4.25387 89.6074
lradius 37.0167
lwrist -7.36583
lhand -3.76832 -23.1893
lfingers 7.12502
lthumb 21.9764 5.5823
rfemur 5.211 2.67044 14.955
rtibia 7.95139e-015
rfoot -17.2565 -10.1866
rtoes -1.82439
lfemur -5.29032 -7.63234 -13.2513
ltibia 20.0768
lfoot -22.6612 15.2736
ltoes -55.4586
86
root -0.730001 18.7147 5.80353 2.95315 -2.1428 -0.943736
lowerback 0.227381 -0.0435939 -1.80843
upperback -2.36197 -0.0802851 0.350167
thorax -2.54766 0.00226771 1.37475
lowerneck -12.4299 -0.802021 -0.920063
upperneck 24.4089 -1.79316 3.33777
head 9.82073 -0.544624 1.10418
rclavicle -1.78285e-015 5.96354e-016
rhumerus -45.3161 -3.09958 -87.7625
rradius 38.5441
rwrist 21.7708
rhand -6.77634 -29.3765
rfingers 7.12502
rthumb 19.0859 -58.4601
lclavicle -1.78285e-015 5.96354e-016
lhumerus -41.8855 4.27513 89.5994
lradius 37.0381
lwrist -7.34764
lhand -3.70972 -23.1448
lfingers 7.12502
lthumb 22.0327 5.62021
rfemur 5.23226 2.68595 14.948
rtibia 3.18055e-015
rfoot -17.2567 -10.1965
rtoes -1.92619
lfemur -5.26039 -7.63907 -13.2687
ltibia 20.0801
lfoot -22.6507 15.2902
ltoes -55.4231
87
root -0.729519 18.7141 5.80226 2.935 -2.15095 -0.96521
lowerback 0.244198 -0.0508033 -1.79322
upperback -2.35606 -0.0897571 0.358301
thorax -2.55067 -0.00270669 1.37482
lowerneck -12.408 -0.792632 -0.886353
upperneck 24.4232 -1.78052 3.30743
head 9.82073 -0.53923 1.0895
rclavicle 3.91357e-016 1.03368e-014
rhumerus -45.2931 -3.07514 -87.7826
rradius 38.511
rwrist 21.759
rhand -6.91414 -29.2846
rfingers 7.12502
rthumb 18.9534 -58.3811
lclavicle 3.91357e-016 1.03368e-014
lhumerus -41.873 4.29737 89.5916
lradius 37.0086
lwrist -7.31074
lhand -3.66825 -23.0781
lfingers 7.12502
lthumb 22.0725 5.68218
rfemur 5.24846 2.69683 14.9713
rtibia 1.11319e-014
rfoot -17.2811 -10.1918
rtoes -1.77421
lfemur -5.23999 -7.65628 -13.2519
ltibia 20.0851
lfoot -22.6521 15.3011
ltoes -55.3944
88
root -0.729544 18.7141 5.80005 2.91712 -2.17167 -0.984773
lowerback 0.270872 -0.0436268 -1.76742
upperback -2.34345 -0.0801902 0.356777
thorax -2.55304 0.00143565 1.35858
lowerneck -12.4397 -0.787882 -0.857437
upperneck 24.4478 -1.77399 3.27885
head 9.83498 -0.536231 1.07551
rclavicle -1.31508e-014 4.37326e-015
rhumerus -45.248 -3.08833 -87.7841
rradius 38.4744
rwrist 21.7349
rhand -7.03262 -29.1566
rfingers 7.12502
rthumb 18.8394 -58.2642
lclavicle -1.31508e-014 4.37326e-015
lhumerus -41.8669 4.28545 89.5953
lradius 37.0145
lwrist -7.25199
lhand -3.69503 -23.0498
lfingers 7.12502
lthumb 22.0468 5.71355
rfemur 5.26031 2.72009 14.9932
rtibia 2.54444e-014
rfoot -17.2821 -10.1848
rtoes -1.52538
lfemur -5.22729 -7.63831 -13.2323
ltibia 20.0945
lfoot -22.6291 15.3236
ltoes -55.4015
89
root -0.729723 18.7145 5.79709 2.90214 -2.18991 -0.986274
lowerback 0.301571 -0.0461565 -1.76501
upperback -2.33256 -0.0841859 0.349091
thorax -2.55896 -0.000723557 1.34947
lowerneck -12.4572 -0.780054 -0.852634
upperneck 24.4521 -1.76625 3.28648
head 9.83971 -0.531167 1.0783
rclavicle 1.4064e-014 -2.38542e-015
rhumerus -45.2244 -3.01365 -87.8198
rradius 38.499
rwrist 21.6594
rhand -7.0466 -29.1654
rfingers 7.12502
rthumb 18.826 -58.2744
lclavicle 1.4064e-014 -2.38542e-015
lhumerus -41.8809 4.27185 89.589
lradius 37.0541
lwrist -7.19385
lhand -3.78032 -22.9808
lfingers 7.12502
lthumb 21.9649 5.79218
rfemur 5.26299 2.73968 14.9968
rtibia 2.54444e-014
rfoot -17.2638 -10.1818
rtoes -1.39153
lfemur -5.22129 -7.60921 -13.2295
ltibia 20.1012
lfoot -22.6293 15.3288
ltoes -55.467
90
root -0.729442 18.7143 5.79402 2.90278 -2.19533 -0.988335
lowerback 0.324805 -0.0603595 -1.77574
upperback -2.33553 -0.103634 0.355895
thorax -2.57439 -0.00995985 1.36302
lowerneck -12.4395 -0.773242 -0.859038
upperneck 24.4522 -1.75535 3.28664
head 9.83613 -0.526935 1.08078
rclavicle 8.95152e-015 -6.55989e-015
rhumerus -45.2367 -2.89408 -87.8566
rradius 38.542
rwrist 21.5819
rhand -7.08901 -29.2347
rfingers 7.12502
rthumb 18.7852 -58.3476
lclavicle 8.95152e-015 -6.55989e-015
lhumerus -41.892 4.28814 89.5861
lradius 37.0654
lwrist -7.14428
lhand -3.84628 -22.9496
lfingers 7.12502
lthumb 21.9016 5.83077
rfemur 5.24781 2.74519 14.9985
rtibia 1.11319e-014
rfoot -17.2522 -10.1889
rtoes -1.43716
lfemur -5.23318 -7.61622 -13.225
ltibia 20.099
lfoot -22.6647 15.3156
ltoes -55.5014
